<svg xmlns="http://www.w3.org/2000/svg" viewBox="0 0 100 100"><path d="M18 74c0-6 4-8 10-8h44c8 0 12 4 12 8 0 4-4 6-8 6H24c-4 0-6-2-6-6z" fill="#E8D3B8"/><path d="M80 66c0-8 4-12 6-18M84 64c2-8 8-10 10-16" stroke="#C9B49A" stroke-width="2" stroke-linecap="round" fill="none"/><circle cx="86" cy="47" r="2.4" fill="#7A6450"/><circle cx="94" cy="47" r="2.4" fill="#7A6450"/><circle cx="48" cy="50" r="22" fill="#C9A47A"/><path d="M48 50m0-14a14 14 0 1 1-12 20 10 10 0 1 1 16-10 5 5 0 1 1-6 4" fill="none" stroke="#8C6A55" stroke-width="2.4" stroke-linecap="round"/><path d="M20 24C23 28.2 24.2 30.6 24.2 32.4a4.2 4.2 0 0 1 -8.4 0c0-3 1.2-7 4.2-8.4z" fill="#A9C4DB" /></svg>