<svg xmlns="http://www.w3.org/2000/svg" viewBox="0 0 100 100"><defs><linearGradient id="m" x1="0" y1="0" x2="1" y2="1"><stop offset="0" stop-color="#F6E2AE"/><stop offset="1" stop-color="#D4A955"/></linearGradient><mask id="k"><rect width="100" height="100" fill="#fff"/><circle cx="60" cy="42" r="24" fill="#000"/></mask></defs><circle cx="44" cy="52" r="30" fill="url(#m)" mask="url(#k)"/><polygon points="68.0,53.0 70.4,58.7 76.6,59.2 71.9,63.3 73.3,69.3 68.0,66.0 62.7,69.3 64.1,63.3 59.4,59.2 65.6,58.7" fill="#F3D88A" stroke-linejoin="round" /><path d="M80 19Q80 24 85 24Q80 24 80 29Q80 24 75 24Q80 24 80 19z" fill="#CFC8F0" /><path d="M24 14.5Q24 18 27.5 18Q24 18 24 21.5Q24 18 20.5 18Q24 18 24 14.5z" fill="#E2C27F" /><path d="M86 71Q86 74 89 74Q86 74 86 77Q86 74 83 74Q86 74 86 71z" fill="#CFC8F0" /></svg>