<svg xmlns="http://www.w3.org/2000/svg" viewBox="0 0 100 100"><defs><linearGradient id="a" x1="0" y1="0" x2="0" y2="1"><stop offset="0" stop-color="#FFFDF8"/><stop offset="1" stop-color="#EFE6D6"/></linearGradient></defs><rect x="20" y="62" width="60" height="22" rx="4" fill="url(#a)" stroke="#D8C9B1" stroke-width="1.4"/><rect x="28" y="44" width="44" height="20" rx="4" fill="url(#a)" stroke="#D8C9B1" stroke-width="1.4"/><rect x="36" y="28" width="28" height="18" rx="4" fill="url(#a)" stroke="#D8C9B1" stroke-width="1.4"/><path d="M20 68q5 5 10 0t10 0 10 0 10 0 10 0 10 0M28 49q4.4 4 8.8 0t8.8 0 8.8 0 8.8 0 8.8 0M36 33q4.7 4 9.3 0t9.3 0 9.3 0" fill="none" stroke="#CDA869" stroke-width="1.6"/><ellipse cx="50" cy="86" rx="38" ry="4" fill="#E2D6C2"/><ellipse cx="50" cy="17.66" rx="3.15" ry="4.2" transform="rotate(0 50 22)" fill="#F2C3CB"/><ellipse cx="50" cy="17.66" rx="3.15" ry="4.2" transform="rotate(72 50 22)" fill="#F2C3CB"/><ellipse cx="50" cy="17.66" rx="3.15" ry="4.2" transform="rotate(144 50 22)" fill="#F2C3CB"/><ellipse cx="50" cy="17.66" rx="3.15" ry="4.2" transform="rotate(216 50 22)" fill="#F2C3CB"/><ellipse cx="50" cy="17.66" rx="3.15" ry="4.2" transform="rotate(288 50 22)" fill="#F2C3CB"/><circle cx="50" cy="22" r="2.1" fill="#E8CC8A"/><path d="M0 0C2.6999999999999997 -3 6.3 -3 9 0C6.3 3 2.6999999999999997 3 0 0z" transform="translate(56 24) rotate(-20)" fill="#9DB48E"/><path d="M0 0C2.6999999999999997 -3 6.3 -3 9 0C6.3 3 2.6999999999999997 3 0 0z" transform="translate(44 24) rotate(200)" fill="#9DB48E"/></svg>