<svg xmlns="http://www.w3.org/2000/svg" viewBox="0 0 100 100"><style>.f{animation:fl 1.4s ease-in-out infinite}@keyframes fl{0%,100%{transform:scale(1,1)}30%{transform:scale(.92,1.08)}60%{transform:scale(1.06,.95)}}.f2{animation-delay:-.5s}.f3{animation-delay:-.9s}@media (prefers-reduced-motion:reduce){*{animation:none!important}}</style><defs><linearGradient id="g" x1="0" y1="0" x2="1" y2="1"><stop offset="0" stop-color="#F3DCA2"/><stop offset="1" stop-color="#B98D47"/></linearGradient></defs><g class="f f1" style="transform-origin:30px 33.2px"><path d="M30 17c4.5 5.4 5.4 9 3.6 12.6-1.8 3.6-5.4 3.6-7.2 0-1.8-3.6-0.9-7.2 3.6-12.6z" fill="#F4C46A"/><path d="M30 23.3c1.8 2.7 2.7 4.5 1.8 6.3-0.9 1.4400000000000002-2.7 1.4400000000000002-3.6 0-0.9-1.8 0-3.6 1.8-6.3z" fill="#FFF3D1"/></g><rect x="26" y="34" width="8" height="42" rx="2" fill="#FFFDF8" stroke="#D8C9B1" stroke-width="1"/><g class="f f2" style="transform-origin:50px 25.2px"><path d="M50 9c4.5 5.4 5.4 9 3.6 12.6-1.8 3.6-5.4 3.6-7.2 0-1.8-3.6-0.9-7.2 3.6-12.6z" fill="#F4C46A"/><path d="M50 15.3c1.8 2.7 2.7 4.5 1.8 6.3-0.9 1.4400000000000002-2.7 1.4400000000000002-3.6 0-0.9-1.8 0-3.6 1.8-6.3z" fill="#FFF3D1"/></g><rect x="46" y="26" width="8" height="50" rx="2" fill="#FFFDF8" stroke="#D8C9B1" stroke-width="1"/><g class="f f3" style="transform-origin:70px 33.2px"><path d="M70 17c4.5 5.4 5.4 9 3.6 12.6-1.8 3.6-5.4 3.6-7.2 0-1.8-3.6-0.9-7.2 3.6-12.6z" fill="#F4C46A"/><path d="M70 23.3c1.8 2.7 2.7 4.5 1.8 6.3-0.9 1.4400000000000002-2.7 1.4400000000000002-3.6 0-0.9-1.8 0-3.6 1.8-6.3z" fill="#FFF3D1"/></g><rect x="66" y="34" width="8" height="42" rx="2" fill="#FFFDF8" stroke="#D8C9B1" stroke-width="1"/><path d="M24 76h52M30 76c0 8 8 10 20 10s20-2 20-10" stroke="url(#g)" stroke-width="3.4" fill="none" stroke-linecap="round"/></svg>