<svg xmlns="http://www.w3.org/2000/svg" viewBox="0 0 100 100"><defs><linearGradient id="g" x1="0" y1="0" x2="1" y2="1"><stop offset="0" stop-color="#F3DCA2"/><stop offset="1" stop-color="#B98D47"/></linearGradient><linearGradient id="d" x1="0" y1="0" x2="0" y2="1"><stop offset="0" stop-color="#F4FAFF"/><stop offset="1" stop-color="#A9C2D6"/></linearGradient></defs><circle cx="50" cy="66" r="22" fill="none" stroke="url(#g)" stroke-width="6"/><path d="M38 34l6-10h12l6 10-12 16z" fill="url(#d)" stroke="#8FAABF" stroke-width="1.4" stroke-linejoin="round"/><path d="M38 34h24M44 24l6 10 6-10M50 34v16" stroke="#B9CCDA" stroke-width="1" fill="none"/><path d="M44 46h12l-2 4h-8z" fill="url(#g)"/><path d="M72 15Q72 22 79 22Q72 22 72 29Q72 22 65 22Q72 22 72 15z" fill="#E3BE7A"/><path d="M28 22Q28 26 32 26Q28 26 28 30Q28 26 24 26Q28 26 28 22z" fill="#E8CC8A"/></svg>