<svg xmlns="http://www.w3.org/2000/svg" viewBox="0 0 100 100"><defs><radialGradient id="a" cx="0.35" cy="0.3" r=".8"><stop offset="0" stop-color="#D97C7C"/><stop offset="1" stop-color="#9E3F45"/></radialGradient></defs><path d="M50 14c8 0 10 6 16 8s12 2 14 10-2 12 0 18 6 12 0 18-12 4-16 10-8 10-14 10-10-6-16-8-12-2-14-10 2-12 0-18-6-12 0-18 12-4 16-10 6-10 14-10z" fill="url(#a)"/><circle cx="50" cy="50" r="22" fill="none" stroke="#7E2E35" stroke-width="1.6" opacity=".5"/><path d="M50 86C22 66 10 50 10 34 10 22 19 13 30 13c9 0 16 5 20 13 4-8 11-13 20-13 11 0 20 9 20 21 0 16-12 32-40 52z" transform="translate(35 37) scale(0.3)" fill="#7E2E35" opacity=".55"/><ellipse cx="36" cy="34" rx="6" ry="3" transform="rotate(-30 36 34)" fill="#fff" opacity="0.3"/></svg>