<svg xmlns="http://www.w3.org/2000/svg" viewBox="0 0 100 100"><style>.d{animation:d 1s linear infinite}.d2{animation-delay:-.33s}.d3{animation-delay:-.66s}@keyframes d{0%{transform:translate(0,0);opacity:0}20%{opacity:1}100%{transform:translate(8px,22px);opacity:0}}@media (prefers-reduced-motion:reduce){*{animation:none!important}}</style><path d="M26 44h36v30c0 4-4 8-8 8H34c-4 0-8-4-8-8z" fill="#A9C4B6"/><path d="M26 52c-12 0-12 18 0 18" stroke="#8FB0A0" stroke-width="3.4" fill="none"/><path d="M62 52l22-16 4 6-24 18z" fill="#8FB0A0"/><ellipse cx="44" cy="44" rx="18" ry="4" fill="#8FB0A0"/><g class="d"><path d="M88 43C89.5 45.1 90.1 46.3 90.1 47.2a2.1 2.1 0 0 1 -4.2 0c0-3 0.6-7 2.1-4.2z" fill="#8FB0CC" /></g><g class="d d2"><path d="M84 41C85.5 43.1 86.1 44.3 86.1 45.2a2.1 2.1 0 0 1 -4.2 0c0-3 0.6-7 2.1-4.2z" fill="#8FB0CC" /></g><g class="d d3"><path d="M92 39C93.5 41.1 94.1 42.3 94.1 43.2a2.1 2.1 0 0 1 -4.2 0c0-3 0.6-7 2.1-4.2z" fill="#8FB0CC" /></g></svg>