<svg xmlns="http://www.w3.org/2000/svg" viewBox="0 0 100 100"><ellipse cx="50" cy="26" rx="6" ry="17" transform="rotate(0 50 50)" fill="#FFFDF8" stroke="#E4DAC6" stroke-width="1.2"/><ellipse cx="50" cy="26" rx="6" ry="17" transform="rotate(25.714285714285715 50 50)" fill="#FFFDF8" stroke="#E4DAC6" stroke-width="1.2"/><ellipse cx="50" cy="26" rx="6" ry="17" transform="rotate(51.42857142857143 50 50)" fill="#FFFDF8" stroke="#E4DAC6" stroke-width="1.2"/><ellipse cx="50" cy="26" rx="6" ry="17" transform="rotate(77.14285714285714 50 50)" fill="#FFFDF8" stroke="#E4DAC6" stroke-width="1.2"/><ellipse cx="50" cy="26" rx="6" ry="17" transform="rotate(102.85714285714286 50 50)" fill="#FFFDF8" stroke="#E4DAC6" stroke-width="1.2"/><ellipse cx="50" cy="26" rx="6" ry="17" transform="rotate(128.57142857142858 50 50)" fill="#FFFDF8" stroke="#E4DAC6" stroke-width="1.2"/><ellipse cx="50" cy="26" rx="6" ry="17" transform="rotate(154.28571428571428 50 50)" fill="#FFFDF8" stroke="#E4DAC6" stroke-width="1.2"/><ellipse cx="50" cy="26" rx="6" ry="17" transform="rotate(180 50 50)" fill="#FFFDF8" stroke="#E4DAC6" stroke-width="1.2"/><ellipse cx="50" cy="26" rx="6" ry="17" transform="rotate(205.71428571428572 50 50)" fill="#FFFDF8" stroke="#E4DAC6" stroke-width="1.2"/><ellipse cx="50" cy="26" rx="6" ry="17" transform="rotate(231.42857142857142 50 50)" fill="#FFFDF8" stroke="#E4DAC6" stroke-width="1.2"/><ellipse cx="50" cy="26" rx="6" ry="17" transform="rotate(257.14285714285717 50 50)" fill="#FFFDF8" stroke="#E4DAC6" stroke-width="1.2"/><ellipse cx="50" cy="26" rx="6" ry="17" transform="rotate(282.85714285714283 50 50)" fill="#FFFDF8" stroke="#E4DAC6" stroke-width="1.2"/><ellipse cx="50" cy="26" rx="6" ry="17" transform="rotate(308.57142857142856 50 50)" fill="#FFFDF8" stroke="#E4DAC6" stroke-width="1.2"/><ellipse cx="50" cy="26" rx="6" ry="17" transform="rotate(334.2857142857143 50 50)" fill="#FFFDF8" stroke="#E4DAC6" stroke-width="1.2"/><circle cx="50" cy="50" r="12" fill="#F1CF72"/><circle cx="50" cy="50" r="12" fill="none" stroke="#D9AF4E" stroke-width="1.6"/><circle cx="46" cy="46" r="1.2" fill="#C69A3A"/><circle cx="54" cy="47" r="1.2" fill="#C69A3A"/><circle cx="50" cy="54" r="1.2" fill="#C69A3A"/><circle cx="45" cy="53" r="1.2" fill="#C69A3A"/><circle cx="55" cy="53" r="1.2" fill="#C69A3A"/></svg>