<svg xmlns="http://www.w3.org/2000/svg" viewBox="0 0 100 100"><path d="M50 88C46 70 34 56 32 44M50 88c0-20 0-34 0-44M50 88c4-18 16-32 18-44" stroke="#6F8F62" stroke-width="2.6" fill="none" stroke-linecap="round"/><path d="M0 0C6.6 -6 15.399999999999999 -6 22 0C15.399999999999999 6 6.6 6 0 0z" transform="translate(48 80) rotate(225)" fill="#9DB48E"/><path d="M0 0C6.6 -6 15.399999999999999 -6 22 0C15.399999999999999 6 6.6 6 0 0z" transform="translate(52 80) rotate(-45)" fill="#88A47A"/><defs><linearGradient id="t0" x1="0" y1="0" x2="0" y2="1"><stop offset="0" stop-color="#F2B8C2"/><stop offset="1" stop-color="#D98E9E"/></linearGradient></defs><path d="M23 40c-1-12 4-16 9-10 5-6 10-2 9 10-1 9-17 9-18 0z" fill="url(#t0)"/><path d="M32 30c-2 6-2 12 0 16" stroke="#fff" stroke-width="1.4" opacity=".4" fill="none"/><defs><linearGradient id="t1" x1="0" y1="0" x2="0" y2="1"><stop offset="0" stop-color="#F3CFA0"/><stop offset="1" stop-color="#DDA66C"/></linearGradient></defs><path d="M41 34c-1-12 4-16 9-10 5-6 10-2 9 10-1 9-17 9-18 0z" fill="url(#t1)"/><path d="M50 24c-2 6-2 12 0 16" stroke="#fff" stroke-width="1.4" opacity=".4" fill="none"/><defs><linearGradient id="t2" x1="0" y1="0" x2="0" y2="1"><stop offset="0" stop-color="#C9B6E3"/><stop offset="1" stop-color="#9F87C9"/></linearGradient></defs><path d="M59 40c-1-12 4-16 9-10 5-6 10-2 9 10-1 9-17 9-18 0z" fill="url(#t2)"/><path d="M68 30c-2 6-2 12 0 16" stroke="#fff" stroke-width="1.4" opacity=".4" fill="none"/></svg>